<?xml version="1.0" encoding="UTF-8" standalone="no"?><!DOCTYPE svg PUBLIC "-//W3C//DTD SVG 1.1//EN" "http://www.w3.org/Graphics/SVG/1.1/DTD/svg11.dtd"><svg width="100%" height="100%" viewBox="0 0 100 100" version="1.1" xmlns="http://www.w3.org/2000/svg" xmlns:xlink="http://www.w3.org/1999/xlink" xml:space="preserve" style="fill-rule:evenodd;clip-rule:evenodd;stroke-linejoin:round;stroke-miterlimit:1.41421;"><path d="M50,0c27.596,0 50,22.404 50,50c0,27.596 -22.404,50 -50,50c-27.596,0 -50,-22.404 -50,-50c0,-27.596 22.404,-50 50,-50Zm-24.484,74.309c-0.068,-0.01 -0.138,-0.017 -0.205,-0.03c-0.272,-0.052 -0.534,-0.153 -0.77,-0.298c-0.176,-0.108 -0.339,-0.24 -0.48,-0.392c-0.428,-0.457 -0.655,-1.081 -0.62,-1.706c0.011,-0.207 0.051,-0.413 0.118,-0.61c0.088,-0.261 0.223,-0.507 0.398,-0.721c0.044,-0.054 0.092,-0.104 0.138,-0.155l24.253,-24.83c0.049,-0.047 0.097,-0.095 0.147,-0.139c0.155,-0.132 0.326,-0.244 0.51,-0.331c0.305,-0.146 0.643,-0.224 0.981,-0.226c0.339,-0.002 0.677,0.071 0.984,0.213c0.185,0.086 0.357,0.196 0.513,0.326c0.052,0.044 0.1,0.092 0.15,0.137l24.252,24.239c0.124,0.136 0.161,0.166 0.266,0.318c0.276,0.398 0.422,0.882 0.411,1.367c-0.007,0.277 -0.063,0.552 -0.165,0.808c-0.077,0.193 -0.181,0.374 -0.306,0.54c-0.21,0.275 -0.481,0.501 -0.789,0.658c-0.308,0.157 -0.651,0.244 -0.997,0.252c-0.276,0.006 -0.553,-0.038 -0.814,-0.129c-0.261,-0.091 -0.506,-0.23 -0.718,-0.407c-0.053,-0.044 -0.102,-0.093 -0.153,-0.139l-22.6,-22.588l-22.621,23.159l-0.151,0.141c-0.145,0.114 -0.178,0.147 -0.337,0.24c-0.239,0.139 -0.503,0.235 -0.776,0.282c-0.182,0.031 -0.229,0.026 -0.412,0.032c-0.069,-0.003 -0.139,-0.007 -0.207,-0.011l0,0Zm48.736,-34.635c0.07,-0.003 0.139,-0.003 0.208,-0.009c0.275,-0.025 0.545,-0.1 0.795,-0.22c0.186,-0.09 0.361,-0.205 0.518,-0.341c0.26,-0.228 0.468,-0.514 0.604,-0.832c0.136,-0.318 0.199,-0.666 0.183,-1.012c-0.009,-0.207 -0.047,-0.412 -0.111,-0.61c-0.085,-0.262 -0.218,-0.51 -0.39,-0.726c-0.303,-0.379 -0.724,-0.658 -1.192,-0.786c-0.178,-0.05 -0.225,-0.05 -0.407,-0.075c-0.069,-0.002 -0.138,-0.005 -0.208,-0.008l-48.504,0c-0.185,0.008 -0.232,0.004 -0.413,0.036c-0.477,0.087 -0.922,0.326 -1.257,0.677c-0.191,0.2 -0.346,0.434 -0.455,0.688c-0.136,0.318 -0.199,0.666 -0.183,1.012c0.015,0.345 0.109,0.686 0.273,0.991c0.099,0.182 0.221,0.351 0.365,0.501c0.191,0.2 0.418,0.365 0.667,0.485c0.25,0.12 0.52,0.195 0.796,0.22c0.068,0.006 0.137,0.006 0.207,0.009l48.504,0Z" style="fill:#1a1a1a;"/></svg>