<?xml version="1.0" encoding="UTF-8" standalone="no"?><!DOCTYPE svg PUBLIC "-//W3C//DTD SVG 1.1//EN" "http://www.w3.org/Graphics/SVG/1.1/DTD/svg11.dtd"><svg width="100%" height="100%" viewBox="0 0 100 100" version="1.1" xmlns="http://www.w3.org/2000/svg" xmlns:xlink="http://www.w3.org/1999/xlink" xml:space="preserve" style="fill-rule:evenodd;clip-rule:evenodd;stroke-linejoin:round;stroke-miterlimit:1.41421;"><path d="M50,0c27.596,0 50,22.404 50,50c0,27.596 -22.404,50 -50,50c-27.596,0 -50,-22.404 -50,-50c0,-27.596 22.404,-50 50,-50Zm24.484,44.883c0.069,0.01 0.138,0.017 0.205,0.03c0.272,0.052 0.534,0.153 0.77,0.298c0.176,0.108 0.338,0.24 0.48,0.391c0.428,0.458 0.655,1.082 0.62,1.707c-0.012,0.207 -0.051,0.412 -0.117,0.609c-0.089,0.262 -0.224,0.508 -0.399,0.722c-0.044,0.054 -0.092,0.103 -0.138,0.155l-24.253,24.83c-0.049,0.046 -0.096,0.095 -0.148,0.139c-0.154,0.132 -0.325,0.244 -0.509,0.331c-0.305,0.146 -0.642,0.224 -0.981,0.226c-0.339,0.002 -0.677,-0.072 -0.984,-0.214c-0.185,-0.085 -0.357,-0.195 -0.513,-0.325c-0.052,-0.044 -0.1,-0.092 -0.15,-0.137l-24.253,-24.239c-0.124,-0.136 -0.16,-0.167 -0.265,-0.318c-0.276,-0.399 -0.422,-0.882 -0.411,-1.367c0.006,-0.277 0.062,-0.552 0.165,-0.808c0.077,-0.193 0.181,-0.375 0.306,-0.54c0.21,-0.275 0.481,-0.502 0.789,-0.659c0.308,-0.157 0.651,-0.243 0.997,-0.251c0.276,-0.007 0.553,0.037 0.815,0.129c0.261,0.091 0.505,0.229 0.717,0.406c0.053,0.045 0.102,0.094 0.153,0.14l22.6,22.587l22.62,-23.158l0.152,-0.142c0.145,-0.113 0.178,-0.147 0.337,-0.24c0.239,-0.139 0.503,-0.235 0.776,-0.281c0.181,-0.031 0.229,-0.027 0.412,-0.033c0.069,0.004 0.138,0.008 0.207,0.012Zm-0.231,-5.209c0.069,-0.003 0.138,-0.003 0.207,-0.009c0.275,-0.025 0.546,-0.1 0.795,-0.22c0.187,-0.09 0.361,-0.205 0.517,-0.341c0.261,-0.228 0.469,-0.514 0.605,-0.832c0.136,-0.318 0.199,-0.666 0.183,-1.011c-0.009,-0.208 -0.046,-0.413 -0.111,-0.611c-0.085,-0.263 -0.218,-0.51 -0.39,-0.726c-0.303,-0.379 -0.724,-0.657 -1.192,-0.786c-0.178,-0.05 -0.225,-0.05 -0.407,-0.074c-0.069,-0.003 -0.138,-0.007 -0.207,-0.01l-48.506,0c-0.184,0.009 -0.231,0.005 -0.412,0.037c-0.478,0.087 -0.922,0.326 -1.257,0.677c-0.191,0.2 -0.346,0.434 -0.455,0.688c-0.136,0.318 -0.199,0.666 -0.183,1.012c0.015,0.345 0.109,0.686 0.273,0.991c0.099,0.182 0.221,0.351 0.365,0.501c0.191,0.2 0.418,0.365 0.667,0.485c0.249,0.12 0.52,0.195 0.795,0.22c0.069,0.006 0.138,0.006 0.207,0.009l48.506,0Z" style="fill:#1a1a1a;"/></svg>